<svg style="stroke-dasharray:none; shape-rendering:auto; font-family:'Dialog'; text-rendering:auto; fill-opacity:1; color-interpolation:auto; color-rendering:auto; font-size:12px; fill:black; stroke:black; image-rendering:auto; stroke-miterlimit:10; stroke-linecap:square; stroke-linejoin:miter; font-style:normal; stroke-width:1; stroke-dashoffset:0; font-weight:normal; stroke-opacity:1;" xmlns="http://www.w3.org/2000/svg" width="1757" contentscripttype="text/ecmascript" preserveAspectRatio="xMidYMid meet" xmlns:xlink="http://www.w3.org/1999/xlink" zoomAndPan="magnify" version="1.0" contentstyletype="text/css" height="1114"><!--Generated by the Batik Graphics2D SVG Generator--><defs id="genericDefs"></defs><g><defs id="defs1"><clipPath clipPathUnits="userSpaceOnUse" id="clipPath1"><path d="M0 0 L1681 0 L1681 32 L0 32 L0 0 Z"></path></clipPath><clipPath clipPathUnits="userSpaceOnUse" id="clipPath2"><path d="M0 0 L76 0 L76 1082 L0 1082 L0 0 Z"></path></clipPath><clipPath clipPathUnits="userSpaceOnUse" id="clipPath3"><path d="M0 0 L1681 0 L1681 1082 L0 1082 L0 0 Z"></path></clipPath></defs><g transform="translate(76,0)" style="fill:rgb(255,255,255); text-rendering:optimizeLegibility; font-size:18.6667px; font-family:'Ubuntu'; stroke:rgb(255,255,255);"><rect x="0" y="0" width="1681" style="clip-path:url(#clipPath1); stroke:none;" height="32"></rect><line x1="0" x2="0" y1="0" style="clip-path:url(#clipPath1); fill:none; stroke:rgb(128,128,128);" y2="32"></line><line x1="0" x2="0" y1="0" style="clip-path:url(#clipPath1); fill:none; stroke:rgb(0,0,0);" y2="8"></line><line x1="26" x2="26" y1="0" style="clip-path:url(#clipPath1); fill:none; stroke:rgb(0,0,0);" y2="3"></line><line x1="26" x2="26" y1="4" style="clip-path:url(#clipPath1); fill:none; stroke:rgb(196,196,196);" y2="32"></line><line x1="53" x2="53" y1="0" style="clip-path:url(#clipPath1); fill:none; stroke:rgb(0,0,0);" y2="3"></line><line x1="53" x2="53" y1="4" style="clip-path:url(#clipPath1); fill:none; stroke:rgb(196,196,196);" y2="32"></line><line x1="80" x2="80" y1="0" style="clip-path:url(#clipPath1); fill:none; stroke:rgb(0,0,0);" y2="3"></line><line x1="80" x2="80" y1="4" style="clip-path:url(#clipPath1); fill:none; stroke:rgb(196,196,196);" y2="32"></line><line x1="106" x2="106" y1="0" style="clip-path:url(#clipPath1); fill:none; stroke:rgb(0,0,0);" y2="3"></line><line x1="106" x2="106" y1="4" style="clip-path:url(#clipPath1); fill:none; stroke:rgb(196,196,196);" y2="32"></line><line x1="133" x2="133" y1="0" style="clip-path:url(#clipPath1); fill:none; stroke:rgb(0,0,0);" y2="3"></line><line x1="133" x2="133" y1="4" style="clip-path:url(#clipPath1); fill:none; stroke:rgb(196,196,196);" y2="32"></line><line x1="160" x2="160" y1="0" style="clip-path:url(#clipPath1); fill:none; stroke:rgb(0,0,0);" y2="3"></line><line x1="160" x2="160" y1="4" style="clip-path:url(#clipPath1); fill:none; stroke:rgb(196,196,196);" y2="32"></line><line x1="187" x2="187" y1="0" style="clip-path:url(#clipPath1); fill:none; stroke:rgb(0,0,0);" y2="3"></line><line x1="187" x2="187" y1="4" style="clip-path:url(#clipPath1); fill:none; stroke:rgb(196,196,196);" y2="32"></line><line x1="213" x2="213" y1="0" style="clip-path:url(#clipPath1); fill:none; stroke:rgb(0,0,0);" y2="3"></line><line x1="213" x2="213" y1="4" style="clip-path:url(#clipPath1); fill:none; stroke:rgb(196,196,196);" y2="32"></line><line x1="240" x2="240" y1="0" style="clip-path:url(#clipPath1); fill:none; stroke:rgb(0,0,0);" y2="3"></line><line x1="240" x2="240" y1="4" style="clip-path:url(#clipPath1); fill:none; stroke:rgb(196,196,196);" y2="32"></line><line x1="267" x2="267" y1="0" style="clip-path:url(#clipPath1); fill:none; stroke:rgb(0,0,0);" y2="8"></line><line x1="293" x2="293" y1="0" style="clip-path:url(#clipPath1); fill:none; stroke:rgb(0,0,0);" y2="3"></line><line x1="293" x2="293" y1="4" style="clip-path:url(#clipPath1); fill:none; stroke:rgb(196,196,196);" y2="32"></line><line x1="320" x2="320" y1="0" style="clip-path:url(#clipPath1); fill:none; stroke:rgb(0,0,0);" y2="3"></line><line x1="320" x2="320" y1="4" style="clip-path:url(#clipPath1); fill:none; stroke:rgb(196,196,196);" y2="32"></line><line x1="347" x2="347" y1="0" style="clip-path:url(#clipPath1); fill:none; stroke:rgb(0,0,0);" y2="3"></line><line x1="347" x2="347" y1="4" style="clip-path:url(#clipPath1); fill:none; stroke:rgb(196,196,196);" y2="32"></line><line x1="373" x2="373" y1="0" style="clip-path:url(#clipPath1); fill:none; stroke:rgb(0,0,0);" y2="3"></line><line x1="373" x2="373" y1="4" style="clip-path:url(#clipPath1); fill:none; stroke:rgb(196,196,196);" y2="32"></line><line x1="400" x2="400" y1="0" style="clip-path:url(#clipPath1); fill:none; stroke:rgb(0,0,0);" y2="3"></line><line x1="400" x2="400" y1="4" style="clip-path:url(#clipPath1); fill:none; stroke:rgb(196,196,196);" y2="32"></line><line x1="427" x2="427" y1="0" style="clip-path:url(#clipPath1); fill:none; stroke:rgb(0,0,0);" y2="3"></line><line x1="427" x2="427" y1="4" style="clip-path:url(#clipPath1); fill:none; stroke:rgb(196,196,196);" y2="32"></line><line x1="454" x2="454" y1="0" style="clip-path:url(#clipPath1); fill:none; stroke:rgb(0,0,0);" y2="3"></line><line x1="454" x2="454" y1="4" style="clip-path:url(#clipPath1); fill:none; stroke:rgb(196,196,196);" y2="32"></line><line x1="480" x2="480" y1="0" style="clip-path:url(#clipPath1); fill:none; stroke:rgb(0,0,0);" y2="3"></line><line x1="480" x2="480" y1="4" style="clip-path:url(#clipPath1); fill:none; stroke:rgb(196,196,196);" y2="32"></line><line x1="507" x2="507" y1="0" style="clip-path:url(#clipPath1); fill:none; stroke:rgb(0,0,0);" y2="3"></line><line x1="507" x2="507" y1="4" style="clip-path:url(#clipPath1); fill:none; stroke:rgb(196,196,196);" y2="32"></line><text x="244" y="26" style="fill:rgb(0,0,0); clip-path:url(#clipPath1); stroke:none;" xml:space="preserve">1 min</text><line x1="534" x2="534" y1="0" style="clip-path:url(#clipPath1); fill:none; stroke:rgb(0,0,0);" y2="8"></line><line x1="560" x2="560" y1="0" style="clip-path:url(#clipPath1); fill:none; stroke:rgb(0,0,0);" y2="3"></line><line x1="560" x2="560" y1="4" style="clip-path:url(#clipPath1); fill:none; stroke:rgb(196,196,196);" y2="32"></line><line x1="587" x2="587" y1="0" style="clip-path:url(#clipPath1); fill:none; stroke:rgb(0,0,0);" y2="3"></line><line x1="587" x2="587" y1="4" style="clip-path:url(#clipPath1); fill:none; stroke:rgb(196,196,196);" y2="32"></line><line x1="614" x2="614" y1="0" style="clip-path:url(#clipPath1); fill:none; stroke:rgb(0,0,0);" y2="3"></line><line x1="614" x2="614" y1="4" style="clip-path:url(#clipPath1); fill:none; stroke:rgb(196,196,196);" y2="32"></line><line x1="640" x2="640" y1="0" style="clip-path:url(#clipPath1); fill:none; stroke:rgb(0,0,0);" y2="3"></line><line x1="640" x2="640" y1="4" style="clip-path:url(#clipPath1); fill:none; stroke:rgb(196,196,196);" y2="32"></line><line x1="667" x2="667" y1="0" style="clip-path:url(#clipPath1); fill:none; stroke:rgb(0,0,0);" y2="3"></line><line x1="667" x2="667" y1="4" style="clip-path:url(#clipPath1); fill:none; stroke:rgb(196,196,196);" y2="32"></line><line x1="694" x2="694" y1="0" style="clip-path:url(#clipPath1); fill:none; stroke:rgb(0,0,0);" y2="3"></line><line x1="694" x2="694" y1="4" style="clip-path:url(#clipPath1); fill:none; stroke:rgb(196,196,196);" y2="32"></line><line x1="721" x2="721" y1="0" style="clip-path:url(#clipPath1); fill:none; stroke:rgb(0,0,0);" y2="3"></line><line x1="721" x2="721" y1="4" style="clip-path:url(#clipPath1); fill:none; stroke:rgb(196,196,196);" y2="32"></line><line x1="747" x2="747" y1="0" style="clip-path:url(#clipPath1); fill:none; stroke:rgb(0,0,0);" y2="3"></line><line x1="747" x2="747" y1="4" style="clip-path:url(#clipPath1); fill:none; stroke:rgb(196,196,196);" y2="32"></line><line x1="774" x2="774" y1="0" style="clip-path:url(#clipPath1); fill:none; stroke:rgb(0,0,0);" y2="3"></line><line x1="774" x2="774" y1="4" style="clip-path:url(#clipPath1); fill:none; stroke:rgb(196,196,196);" y2="32"></line><text x="511" y="26" style="fill:rgb(0,0,0); clip-path:url(#clipPath1); stroke:none;" xml:space="preserve">2 min</text><line x1="802" x2="802" y1="0" style="clip-path:url(#clipPath1); fill:none; stroke:rgb(0,0,0);" y2="8"></line><line x1="828" x2="828" y1="0" style="clip-path:url(#clipPath1); fill:none; stroke:rgb(0,0,0);" y2="3"></line><line x1="828" x2="828" y1="4" style="clip-path:url(#clipPath1); fill:none; stroke:rgb(196,196,196);" y2="32"></line><line x1="855" x2="855" y1="0" style="clip-path:url(#clipPath1); fill:none; stroke:rgb(0,0,0);" y2="3"></line><line x1="855" x2="855" y1="4" style="clip-path:url(#clipPath1); fill:none; stroke:rgb(196,196,196);" y2="32"></line><line x1="882" x2="882" y1="0" style="clip-path:url(#clipPath1); fill:none; stroke:rgb(0,0,0);" y2="3"></line><line x1="882" x2="882" y1="4" style="clip-path:url(#clipPath1); fill:none; stroke:rgb(196,196,196);" y2="32"></line><line x1="908" x2="908" y1="0" style="clip-path:url(#clipPath1); fill:none; stroke:rgb(0,0,0);" y2="3"></line><line x1="908" x2="908" y1="4" style="clip-path:url(#clipPath1); fill:none; stroke:rgb(196,196,196);" y2="32"></line><line x1="935" x2="935" y1="0" style="clip-path:url(#clipPath1); fill:none; stroke:rgb(0,0,0);" y2="3"></line><line x1="935" x2="935" y1="4" style="clip-path:url(#clipPath1); fill:none; stroke:rgb(196,196,196);" y2="32"></line><line x1="962" x2="962" y1="0" style="clip-path:url(#clipPath1); fill:none; stroke:rgb(0,0,0);" y2="3"></line><line x1="962" x2="962" y1="4" style="clip-path:url(#clipPath1); fill:none; stroke:rgb(196,196,196);" y2="32"></line><line x1="989" x2="989" y1="0" style="clip-path:url(#clipPath1); fill:none; stroke:rgb(0,0,0);" y2="3"></line><line x1="989" x2="989" y1="4" style="clip-path:url(#clipPath1); fill:none; stroke:rgb(196,196,196);" y2="32"></line><line x1="1015" x2="1015" y1="0" style="clip-path:url(#clipPath1); fill:none; stroke:rgb(0,0,0);" y2="3"></line><line x1="1015" x2="1015" y1="4" style="clip-path:url(#clipPath1); fill:none; stroke:rgb(196,196,196);" y2="32"></line><line x1="1042" x2="1042" y1="0" style="clip-path:url(#clipPath1); fill:none; stroke:rgb(0,0,0);" y2="3"></line><line x1="1042" x2="1042" y1="4" style="clip-path:url(#clipPath1); fill:none; stroke:rgb(196,196,196);" y2="32"></line><text x="779" y="26" style="fill:rgb(0,0,0); clip-path:url(#clipPath1); stroke:none;" xml:space="preserve">3 min</text><line x1="1069" x2="1069" y1="0" style="clip-path:url(#clipPath1); fill:none; stroke:rgb(0,0,0);" y2="8"></line><line x1="1095" x2="1095" y1="0" style="clip-path:url(#clipPath1); fill:none; stroke:rgb(0,0,0);" y2="3"></line><line x1="1095" x2="1095" y1="4" style="clip-path:url(#clipPath1); fill:none; stroke:rgb(196,196,196);" y2="32"></line><line x1="1122" x2="1122" y1="0" style="clip-path:url(#clipPath1); fill:none; stroke:rgb(0,0,0);" y2="3"></line><line x1="1122" x2="1122" y1="4" style="clip-path:url(#clipPath1); fill:none; stroke:rgb(196,196,196);" y2="32"></line><line x1="1149" x2="1149" y1="0" style="clip-path:url(#clipPath1); fill:none; stroke:rgb(0,0,0);" y2="3"></line><line x1="1149" x2="1149" y1="4" style="clip-path:url(#clipPath1); fill:none; stroke:rgb(196,196,196);" y2="32"></line><line x1="1175" x2="1175" y1="0" style="clip-path:url(#clipPath1); fill:none; stroke:rgb(0,0,0);" y2="3"></line><line x1="1175" x2="1175" y1="4" style="clip-path:url(#clipPath1); fill:none; stroke:rgb(196,196,196);" y2="32"></line><line x1="1202" x2="1202" y1="0" style="clip-path:url(#clipPath1); fill:none; stroke:rgb(0,0,0);" y2="3"></line><line x1="1202" x2="1202" y1="4" style="clip-path:url(#clipPath1); fill:none; stroke:rgb(196,196,196);" y2="32"></line><line x1="1229" x2="1229" y1="0" style="clip-path:url(#clipPath1); fill:none; stroke:rgb(0,0,0);" y2="3"></line><line x1="1229" x2="1229" y1="4" style="clip-path:url(#clipPath1); fill:none; stroke:rgb(196,196,196);" y2="32"></line><line x1="1256" x2="1256" y1="0" style="clip-path:url(#clipPath1); fill:none; stroke:rgb(0,0,0);" y2="3"></line><line x1="1256" x2="1256" y1="4" style="clip-path:url(#clipPath1); fill:none; stroke:rgb(196,196,196);" y2="32"></line><line x1="1282" x2="1282" y1="0" style="clip-path:url(#clipPath1); fill:none; stroke:rgb(0,0,0);" y2="3"></line><line x1="1282" x2="1282" y1="4" style="clip-path:url(#clipPath1); fill:none; stroke:rgb(196,196,196);" y2="32"></line><line x1="1309" x2="1309" y1="0" style="clip-path:url(#clipPath1); fill:none; stroke:rgb(0,0,0);" y2="3"></line><line x1="1309" x2="1309" y1="4" style="clip-path:url(#clipPath1); fill:none; stroke:rgb(196,196,196);" y2="32"></line><text x="1046" y="26" style="fill:rgb(0,0,0); clip-path:url(#clipPath1); stroke:none;" xml:space="preserve">4 min</text><line x1="1337" x2="1337" y1="0" style="clip-path:url(#clipPath1); fill:none; stroke:rgb(0,0,0);" y2="8"></line><line x1="1363" x2="1363" y1="0" style="clip-path:url(#clipPath1); fill:none; stroke:rgb(0,0,0);" y2="3"></line><line x1="1363" x2="1363" y1="4" style="clip-path:url(#clipPath1); fill:none; stroke:rgb(196,196,196);" y2="32"></line><line x1="1390" x2="1390" y1="0" style="clip-path:url(#clipPath1); fill:none; stroke:rgb(0,0,0);" y2="3"></line><line x1="1390" x2="1390" y1="4" style="clip-path:url(#clipPath1); fill:none; stroke:rgb(196,196,196);" y2="32"></line><line x1="1417" x2="1417" y1="0" style="clip-path:url(#clipPath1); fill:none; stroke:rgb(0,0,0);" y2="3"></line><line x1="1417" x2="1417" y1="4" style="clip-path:url(#clipPath1); fill:none; stroke:rgb(196,196,196);" y2="32"></line><line x1="1443" x2="1443" y1="0" style="clip-path:url(#clipPath1); fill:none; stroke:rgb(0,0,0);" y2="3"></line><line x1="1443" x2="1443" y1="4" style="clip-path:url(#clipPath1); fill:none; stroke:rgb(196,196,196);" y2="32"></line><line x1="1470" x2="1470" y1="0" style="clip-path:url(#clipPath1); fill:none; stroke:rgb(0,0,0);" y2="3"></line><line x1="1470" x2="1470" y1="4" style="clip-path:url(#clipPath1); fill:none; stroke:rgb(196,196,196);" y2="32"></line><line x1="1497" x2="1497" y1="0" style="clip-path:url(#clipPath1); fill:none; stroke:rgb(0,0,0);" y2="3"></line><line x1="1497" x2="1497" y1="4" style="clip-path:url(#clipPath1); fill:none; stroke:rgb(196,196,196);" y2="32"></line><line x1="1524" x2="1524" y1="0" style="clip-path:url(#clipPath1); fill:none; stroke:rgb(0,0,0);" y2="3"></line><line x1="1524" x2="1524" y1="4" style="clip-path:url(#clipPath1); fill:none; stroke:rgb(196,196,196);" y2="32"></line><line x1="1550" x2="1550" y1="0" style="clip-path:url(#clipPath1); fill:none; stroke:rgb(0,0,0);" y2="3"></line><line x1="1550" x2="1550" y1="4" style="clip-path:url(#clipPath1); fill:none; stroke:rgb(196,196,196);" y2="32"></line><line x1="1577" x2="1577" y1="0" style="clip-path:url(#clipPath1); fill:none; stroke:rgb(0,0,0);" y2="3"></line><line x1="1577" x2="1577" y1="4" style="clip-path:url(#clipPath1); fill:none; stroke:rgb(196,196,196);" y2="32"></line><text x="1314" y="26" style="fill:rgb(0,0,0); clip-path:url(#clipPath1); stroke:none;" xml:space="preserve">5 min</text><line x1="1604" x2="1604" y1="0" style="clip-path:url(#clipPath1); fill:none; stroke:rgb(0,0,0);" y2="8"></line><line x1="1630" x2="1630" y1="0" style="clip-path:url(#clipPath1); fill:none; stroke:rgb(0,0,0);" y2="3"></line><line x1="1630" x2="1630" y1="4" style="clip-path:url(#clipPath1); fill:none; stroke:rgb(196,196,196);" y2="32"></line><line x1="1657" x2="1657" y1="0" style="clip-path:url(#clipPath1); fill:none; stroke:rgb(0,0,0);" y2="3"></line><line x1="1657" x2="1657" y1="4" style="clip-path:url(#clipPath1); fill:none; stroke:rgb(196,196,196);" y2="32"></line><line x1="1684" x2="1684" y1="0" style="clip-path:url(#clipPath1); fill:none; stroke:rgb(0,0,0);" y2="3"></line><line x1="1684" x2="1684" y1="4" style="clip-path:url(#clipPath1); fill:none; stroke:rgb(196,196,196);" y2="32"></line><line x1="1710" x2="1710" y1="0" style="clip-path:url(#clipPath1); fill:none; stroke:rgb(0,0,0);" y2="3"></line><line x1="1710" x2="1710" y1="4" style="clip-path:url(#clipPath1); fill:none; stroke:rgb(196,196,196);" y2="32"></line><line x1="1737" x2="1737" y1="0" style="clip-path:url(#clipPath1); fill:none; stroke:rgb(0,0,0);" y2="3"></line><line x1="1737" x2="1737" y1="4" style="clip-path:url(#clipPath1); fill:none; stroke:rgb(196,196,196);" y2="32"></line><line x1="1764" x2="1764" y1="0" style="clip-path:url(#clipPath1); fill:none; stroke:rgb(0,0,0);" y2="3"></line><line x1="1764" x2="1764" y1="4" style="clip-path:url(#clipPath1); fill:none; stroke:rgb(196,196,196);" y2="32"></line><line x1="1791" x2="1791" y1="0" style="clip-path:url(#clipPath1); fill:none; stroke:rgb(0,0,0);" y2="3"></line><line x1="1791" x2="1791" y1="4" style="clip-path:url(#clipPath1); fill:none; stroke:rgb(196,196,196);" y2="32"></line><line x1="1817" x2="1817" y1="0" style="clip-path:url(#clipPath1); fill:none; stroke:rgb(0,0,0);" y2="3"></line><line x1="1817" x2="1817" y1="4" style="clip-path:url(#clipPath1); fill:none; stroke:rgb(196,196,196);" y2="32"></line><line x1="1844" x2="1844" y1="0" style="clip-path:url(#clipPath1); fill:none; stroke:rgb(0,0,0);" y2="3"></line><line x1="1844" x2="1844" y1="4" style="clip-path:url(#clipPath1); fill:none; stroke:rgb(196,196,196);" y2="32"></line><text x="1581" y="26" style="fill:rgb(0,0,0); clip-path:url(#clipPath1); stroke:none;" xml:space="preserve">6 min</text></g><g transform="translate(76,0)" style="font-size:18.6667px; fill:purple; text-rendering:geometricPrecision; font-family:'Ubuntu'; shape-rendering:crispEdges; stroke:purple; stroke-width:2;"><line x1="207" x2="207" y1="0" style="fill:none; clip-path:url(#clipPath1);" y2="32"></line><line x1="1664" x2="1664" y1="0" style="clip-path:url(#clipPath1); fill:none; stroke:rgb(51,102,255);" y2="32"></line></g><g transform="translate(0,32)" style="fill:rgb(255,255,255); text-rendering:optimizeLegibility; font-size:18.6667px; font-family:'Ubuntu'; stroke:rgb(255,255,255);"><rect x="0" y="0" width="76" style="clip-path:url(#clipPath2); stroke:none;" height="1082"></rect><line x1="60" x2="60" y1="1082" style="clip-path:url(#clipPath2); fill:none; stroke:rgb(0,0,0);" y2="5"></line><polygon style="fill:none; clip-path:url(#clipPath2); stroke:rgb(0,0,0);" points=" 56 13 60 5 64 13"></polygon><polygon style="fill:rgb(0,0,0); clip-path:url(#clipPath2); stroke:none;" points=" 56 13 60 5 64 13"></polygon><line x1="54" x2="59" y1="817" style="clip-path:url(#clipPath2); fill:none; stroke:rgb(0,0,0);" y2="817"></line><line x1="56" x2="59" y1="870" style="clip-path:url(#clipPath2); fill:none; stroke:rgb(196,196,196);" y2="870"></line><line x1="56" x2="59" y1="923" style="clip-path:url(#clipPath2); fill:none; stroke:rgb(196,196,196);" y2="923"></line><line x1="56" x2="59" y1="976" style="clip-path:url(#clipPath2); fill:none; stroke:rgb(196,196,196);" y2="976"></line><line x1="56" x2="59" y1="1029" style="clip-path:url(#clipPath2); fill:none; stroke:rgb(196,196,196);" y2="1029"></line><line x1="61" x2="76" y1="817" style="clip-path:url(#clipPath2); fill:none; stroke:rgb(128,128,128);" y2="817"></line><line x1="61" x2="76" y1="870" style="clip-path:url(#clipPath2); fill:none; stroke:rgb(196,196,196);" y2="870"></line><line x1="61" x2="76" y1="923" style="clip-path:url(#clipPath2); fill:none; stroke:rgb(196,196,196);" y2="923"></line><line x1="61" x2="76" y1="976" style="clip-path:url(#clipPath2); fill:none; stroke:rgb(196,196,196);" y2="976"></line><line x1="61" x2="76" y1="1029" style="clip-path:url(#clipPath2); fill:none; stroke:rgb(196,196,196);" y2="1029"></line><text x="24" y="823" style="fill:rgb(0,0,0); clip-path:url(#clipPath2); stroke:none;" xml:space="preserve">10 </text><line x1="54" x2="59" y1="552" style="clip-path:url(#clipPath2); fill:none; stroke:rgb(0,0,0);" y2="552"></line><line x1="56" x2="59" y1="605" style="clip-path:url(#clipPath2); fill:none; stroke:rgb(196,196,196);" y2="605"></line><line x1="56" x2="59" y1="658" style="clip-path:url(#clipPath2); fill:none; stroke:rgb(196,196,196);" y2="658"></line><line x1="56" x2="59" y1="711" style="clip-path:url(#clipPath2); fill:none; stroke:rgb(196,196,196);" y2="711"></line><line x1="56" x2="59" y1="764" style="clip-path:url(#clipPath2); fill:none; stroke:rgb(196,196,196);" y2="764"></line><line x1="61" x2="76" y1="552" style="clip-path:url(#clipPath2); fill:none; stroke:rgb(128,128,128);" y2="552"></line><line x1="61" x2="76" y1="605" style="clip-path:url(#clipPath2); fill:none; stroke:rgb(196,196,196);" y2="605"></line><line x1="61" x2="76" y1="658" style="clip-path:url(#clipPath2); fill:none; stroke:rgb(196,196,196);" y2="658"></line><line x1="61" x2="76" y1="711" style="clip-path:url(#clipPath2); fill:none; stroke:rgb(196,196,196);" y2="711"></line><line x1="61" x2="76" y1="764" style="clip-path:url(#clipPath2); fill:none; stroke:rgb(196,196,196);" y2="764"></line><text x="24" y="558" style="fill:rgb(0,0,0); clip-path:url(#clipPath2); stroke:none;" xml:space="preserve">20 </text><line x1="54" x2="59" y1="287" style="clip-path:url(#clipPath2); fill:none; stroke:rgb(0,0,0);" y2="287"></line><line x1="56" x2="59" y1="340" style="clip-path:url(#clipPath2); fill:none; stroke:rgb(196,196,196);" y2="340"></line><line x1="56" x2="59" y1="393" style="clip-path:url(#clipPath2); fill:none; stroke:rgb(196,196,196);" y2="393"></line><line x1="56" x2="59" y1="446" style="clip-path:url(#clipPath2); fill:none; stroke:rgb(196,196,196);" y2="446"></line><line x1="56" x2="59" y1="499" style="clip-path:url(#clipPath2); fill:none; stroke:rgb(196,196,196);" y2="499"></line><line x1="61" x2="76" y1="287" style="clip-path:url(#clipPath2); fill:none; stroke:rgb(128,128,128);" y2="287"></line><line x1="61" x2="76" y1="340" style="clip-path:url(#clipPath2); fill:none; stroke:rgb(196,196,196);" y2="340"></line><line x1="61" x2="76" y1="393" style="clip-path:url(#clipPath2); fill:none; stroke:rgb(196,196,196);" y2="393"></line><line x1="61" x2="76" y1="446" style="clip-path:url(#clipPath2); fill:none; stroke:rgb(196,196,196);" y2="446"></line><line x1="61" x2="76" y1="499" style="clip-path:url(#clipPath2); fill:none; stroke:rgb(196,196,196);" y2="499"></line><text x="24" y="293" style="fill:rgb(0,0,0); clip-path:url(#clipPath2); stroke:none;" xml:space="preserve">30 </text><line x1="54" x2="59" y1="22" style="clip-path:url(#clipPath2); fill:none; stroke:rgb(0,0,0);" y2="22"></line><line x1="56" x2="59" y1="75" style="clip-path:url(#clipPath2); fill:none; stroke:rgb(196,196,196);" y2="75"></line><line x1="56" x2="59" y1="128" style="clip-path:url(#clipPath2); fill:none; stroke:rgb(196,196,196);" y2="128"></line><line x1="56" x2="59" y1="181" style="clip-path:url(#clipPath2); fill:none; stroke:rgb(196,196,196);" y2="181"></line><line x1="56" x2="59" y1="234" style="clip-path:url(#clipPath2); fill:none; stroke:rgb(196,196,196);" y2="234"></line><line x1="61" x2="76" y1="22" style="clip-path:url(#clipPath2); fill:none; stroke:rgb(128,128,128);" y2="22"></line><line x1="61" x2="76" y1="75" style="clip-path:url(#clipPath2); fill:none; stroke:rgb(196,196,196);" y2="75"></line><line x1="61" x2="76" y1="128" style="clip-path:url(#clipPath2); fill:none; stroke:rgb(196,196,196);" y2="128"></line><line x1="61" x2="76" y1="181" style="clip-path:url(#clipPath2); fill:none; stroke:rgb(196,196,196);" y2="181"></line><line x1="61" x2="76" y1="234" style="clip-path:url(#clipPath2); fill:none; stroke:rgb(196,196,196);" y2="234"></line><text x="24" y="28" style="fill:rgb(0,0,0); clip-path:url(#clipPath2); stroke:none;" xml:space="preserve">40 </text></g><g transform="translate(76,32)" style="fill:rgb(255,255,255); text-rendering:optimizeLegibility; font-size:18.6667px; font-family:'Ubuntu'; stroke:rgb(255,255,255);"><rect x="0" y="0" width="1681" style="clip-path:url(#clipPath3); stroke:none;" height="1082"></rect><line x1="0" x2="0" y1="0" style="clip-path:url(#clipPath3); fill:none; stroke:rgb(128,128,128);" y2="1081"></line><line x1="26" x2="26" y1="0" style="clip-path:url(#clipPath3); fill:none; stroke:rgb(196,196,196);" y2="1081"></line><line x1="53" x2="53" y1="0" style="clip-path:url(#clipPath3); fill:none; stroke:rgb(196,196,196);" y2="1081"></line><line x1="80" x2="80" y1="0" style="clip-path:url(#clipPath3); fill:none; stroke:rgb(196,196,196);" y2="1081"></line><line x1="106" x2="106" y1="0" style="clip-path:url(#clipPath3); fill:none; stroke:rgb(196,196,196);" y2="1081"></line><line x1="133" x2="133" y1="0" style="clip-path:url(#clipPath3); fill:none; stroke:rgb(196,196,196);" y2="1081"></line><line x1="160" x2="160" y1="0" style="clip-path:url(#clipPath3); fill:none; stroke:rgb(196,196,196);" y2="1081"></line><line x1="187" x2="187" y1="0" style="clip-path:url(#clipPath3); fill:none; stroke:rgb(196,196,196);" y2="1081"></line><line x1="213" x2="213" y1="0" style="clip-path:url(#clipPath3); fill:none; stroke:rgb(196,196,196);" y2="1081"></line><line x1="240" x2="240" y1="0" style="clip-path:url(#clipPath3); fill:none; stroke:rgb(196,196,196);" y2="1081"></line><line x1="267" x2="267" y1="0" style="clip-path:url(#clipPath3); fill:none; stroke:rgb(128,128,128);" y2="1081"></line><line x1="293" x2="293" y1="0" style="clip-path:url(#clipPath3); fill:none; stroke:rgb(196,196,196);" y2="1081"></line><line x1="320" x2="320" y1="0" style="clip-path:url(#clipPath3); fill:none; stroke:rgb(196,196,196);" y2="1081"></line><line x1="347" x2="347" y1="0" style="clip-path:url(#clipPath3); fill:none; stroke:rgb(196,196,196);" y2="1081"></line><line x1="373" x2="373" y1="0" style="clip-path:url(#clipPath3); fill:none; stroke:rgb(196,196,196);" y2="1081"></line><line x1="400" x2="400" y1="0" style="clip-path:url(#clipPath3); fill:none; stroke:rgb(196,196,196);" y2="1081"></line><line x1="427" x2="427" y1="0" style="clip-path:url(#clipPath3); fill:none; stroke:rgb(196,196,196);" y2="1081"></line><line x1="454" x2="454" y1="0" style="clip-path:url(#clipPath3); fill:none; stroke:rgb(196,196,196);" y2="1081"></line><line x1="480" x2="480" y1="0" style="clip-path:url(#clipPath3); fill:none; stroke:rgb(196,196,196);" y2="1081"></line><line x1="507" x2="507" y1="0" style="clip-path:url(#clipPath3); fill:none; stroke:rgb(196,196,196);" y2="1081"></line><line x1="534" x2="534" y1="0" style="clip-path:url(#clipPath3); fill:none; stroke:rgb(128,128,128);" y2="1081"></line><line x1="560" x2="560" y1="0" style="clip-path:url(#clipPath3); fill:none; stroke:rgb(196,196,196);" y2="1081"></line><line x1="587" x2="587" y1="0" style="clip-path:url(#clipPath3); fill:none; stroke:rgb(196,196,196);" y2="1081"></line><line x1="614" x2="614" y1="0" style="clip-path:url(#clipPath3); fill:none; stroke:rgb(196,196,196);" y2="1081"></line><line x1="640" x2="640" y1="0" style="clip-path:url(#clipPath3); fill:none; stroke:rgb(196,196,196);" y2="1081"></line><line x1="667" x2="667" y1="0" style="clip-path:url(#clipPath3); fill:none; stroke:rgb(196,196,196);" y2="1081"></line><line x1="694" x2="694" y1="0" style="clip-path:url(#clipPath3); fill:none; stroke:rgb(196,196,196);" y2="1081"></line><line x1="721" x2="721" y1="0" style="clip-path:url(#clipPath3); fill:none; stroke:rgb(196,196,196);" y2="1081"></line><line x1="747" x2="747" y1="0" style="clip-path:url(#clipPath3); fill:none; stroke:rgb(196,196,196);" y2="1081"></line><line x1="774" x2="774" y1="0" style="clip-path:url(#clipPath3); fill:none; stroke:rgb(196,196,196);" y2="1081"></line><line x1="802" x2="802" y1="0" style="clip-path:url(#clipPath3); fill:none; stroke:rgb(128,128,128);" y2="1081"></line><line x1="828" x2="828" y1="0" style="clip-path:url(#clipPath3); fill:none; stroke:rgb(196,196,196);" y2="1081"></line><line x1="855" x2="855" y1="0" style="clip-path:url(#clipPath3); fill:none; stroke:rgb(196,196,196);" y2="1081"></line><line x1="882" x2="882" y1="0" style="clip-path:url(#clipPath3); fill:none; stroke:rgb(196,196,196);" y2="1081"></line><line x1="908" x2="908" y1="0" style="clip-path:url(#clipPath3); fill:none; stroke:rgb(196,196,196);" y2="1081"></line><line x1="935" x2="935" y1="0" style="clip-path:url(#clipPath3); fill:none; stroke:rgb(196,196,196);" y2="1081"></line><line x1="962" x2="962" y1="0" style="clip-path:url(#clipPath3); fill:none; stroke:rgb(196,196,196);" y2="1081"></line><line x1="989" x2="989" y1="0" style="clip-path:url(#clipPath3); fill:none; stroke:rgb(196,196,196);" y2="1081"></line><line x1="1015" x2="1015" y1="0" style="clip-path:url(#clipPath3); fill:none; stroke:rgb(196,196,196);" y2="1081"></line><line x1="1042" x2="1042" y1="0" style="clip-path:url(#clipPath3); fill:none; stroke:rgb(196,196,196);" y2="1081"></line><line x1="1069" x2="1069" y1="0" style="clip-path:url(#clipPath3); fill:none; stroke:rgb(128,128,128);" y2="1081"></line><line x1="1095" x2="1095" y1="0" style="clip-path:url(#clipPath3); fill:none; stroke:rgb(196,196,196);" y2="1081"></line><line x1="1122" x2="1122" y1="0" style="clip-path:url(#clipPath3); fill:none; stroke:rgb(196,196,196);" y2="1081"></line><line x1="1149" x2="1149" y1="0" style="clip-path:url(#clipPath3); fill:none; stroke:rgb(196,196,196);" y2="1081"></line><line x1="1175" x2="1175" y1="0" style="clip-path:url(#clipPath3); fill:none; stroke:rgb(196,196,196);" y2="1081"></line><line x1="1202" x2="1202" y1="0" style="clip-path:url(#clipPath3); fill:none; stroke:rgb(196,196,196);" y2="1081"></line><line x1="1229" x2="1229" y1="0" style="clip-path:url(#clipPath3); fill:none; stroke:rgb(196,196,196);" y2="1081"></line><line x1="1256" x2="1256" y1="0" style="clip-path:url(#clipPath3); fill:none; stroke:rgb(196,196,196);" y2="1081"></line><line x1="1282" x2="1282" y1="0" style="clip-path:url(#clipPath3); fill:none; stroke:rgb(196,196,196);" y2="1081"></line><line x1="1309" x2="1309" y1="0" style="clip-path:url(#clipPath3); fill:none; stroke:rgb(196,196,196);" y2="1081"></line><line x1="1337" x2="1337" y1="0" style="clip-path:url(#clipPath3); fill:none; stroke:rgb(128,128,128);" y2="1081"></line><line x1="1363" x2="1363" y1="0" style="clip-path:url(#clipPath3); fill:none; stroke:rgb(196,196,196);" y2="1081"></line><line x1="1390" x2="1390" y1="0" style="clip-path:url(#clipPath3); fill:none; stroke:rgb(196,196,196);" y2="1081"></line><line x1="1417" x2="1417" y1="0" style="clip-path:url(#clipPath3); fill:none; stroke:rgb(196,196,196);" y2="1081"></line><line x1="1443" x2="1443" y1="0" style="clip-path:url(#clipPath3); fill:none; stroke:rgb(196,196,196);" y2="1081"></line><line x1="1470" x2="1470" y1="0" style="clip-path:url(#clipPath3); fill:none; stroke:rgb(196,196,196);" y2="1081"></line><line x1="1497" x2="1497" y1="0" style="clip-path:url(#clipPath3); fill:none; stroke:rgb(196,196,196);" y2="1081"></line><line x1="1524" x2="1524" y1="0" style="clip-path:url(#clipPath3); fill:none; stroke:rgb(196,196,196);" y2="1081"></line><line x1="1550" x2="1550" y1="0" style="clip-path:url(#clipPath3); fill:none; stroke:rgb(196,196,196);" y2="1081"></line><line x1="1577" x2="1577" y1="0" style="clip-path:url(#clipPath3); fill:none; stroke:rgb(196,196,196);" y2="1081"></line><line x1="1604" x2="1604" y1="0" style="clip-path:url(#clipPath3); fill:none; stroke:rgb(128,128,128);" y2="1081"></line><line x1="1630" x2="1630" y1="0" style="clip-path:url(#clipPath3); fill:none; stroke:rgb(196,196,196);" y2="1081"></line><line x1="1657" x2="1657" y1="0" style="clip-path:url(#clipPath3); fill:none; stroke:rgb(196,196,196);" y2="1081"></line><line x1="1684" x2="1684" y1="0" style="clip-path:url(#clipPath3); fill:none; stroke:rgb(196,196,196);" y2="1081"></line><line x1="1710" x2="1710" y1="0" style="clip-path:url(#clipPath3); fill:none; stroke:rgb(196,196,196);" y2="1081"></line><line x1="1737" x2="1737" y1="0" style="clip-path:url(#clipPath3); fill:none; stroke:rgb(196,196,196);" y2="1081"></line><line x1="1764" x2="1764" y1="0" style="clip-path:url(#clipPath3); fill:none; stroke:rgb(196,196,196);" y2="1081"></line><line x1="1791" x2="1791" y1="0" style="clip-path:url(#clipPath3); fill:none; stroke:rgb(196,196,196);" y2="1081"></line><line x1="1817" x2="1817" y1="0" style="clip-path:url(#clipPath3); fill:none; stroke:rgb(196,196,196);" y2="1081"></line><line x1="1844" x2="1844" y1="0" style="clip-path:url(#clipPath3); fill:none; stroke:rgb(196,196,196);" y2="1081"></line><line x1="0" x2="1681" y1="817" style="clip-path:url(#clipPath3); fill:none; stroke:rgb(128,128,128);" y2="817"></line><line x1="0" x2="1681" y1="870" style="clip-path:url(#clipPath3); fill:none; stroke:rgb(196,196,196);" y2="870"></line><line x1="0" x2="1681" y1="923" style="clip-path:url(#clipPath3); fill:none; stroke:rgb(196,196,196);" y2="923"></line><line x1="0" x2="1681" y1="976" style="clip-path:url(#clipPath3); fill:none; stroke:rgb(196,196,196);" y2="976"></line><line x1="0" x2="1681" y1="1029" style="clip-path:url(#clipPath3); fill:none; stroke:rgb(196,196,196);" y2="1029"></line><line x1="0" x2="1681" y1="552" style="clip-path:url(#clipPath3); fill:none; stroke:rgb(128,128,128);" y2="552"></line><line x1="0" x2="1681" y1="605" style="clip-path:url(#clipPath3); fill:none; stroke:rgb(196,196,196);" y2="605"></line><line x1="0" x2="1681" y1="658" style="clip-path:url(#clipPath3); fill:none; stroke:rgb(196,196,196);" y2="658"></line><line x1="0" x2="1681" y1="711" style="clip-path:url(#clipPath3); fill:none; stroke:rgb(196,196,196);" y2="711"></line><line x1="0" x2="1681" y1="764" style="clip-path:url(#clipPath3); fill:none; stroke:rgb(196,196,196);" y2="764"></line><line x1="0" x2="1681" y1="287" style="clip-path:url(#clipPath3); fill:none; stroke:rgb(128,128,128);" y2="287"></line><line x1="0" x2="1681" y1="340" style="clip-path:url(#clipPath3); fill:none; stroke:rgb(196,196,196);" y2="340"></line><line x1="0" x2="1681" y1="393" style="clip-path:url(#clipPath3); fill:none; stroke:rgb(196,196,196);" y2="393"></line><line x1="0" x2="1681" y1="446" style="clip-path:url(#clipPath3); fill:none; stroke:rgb(196,196,196);" y2="446"></line><line x1="0" x2="1681" y1="499" style="clip-path:url(#clipPath3); fill:none; stroke:rgb(196,196,196);" y2="499"></line><line x1="0" x2="1681" y1="22" style="clip-path:url(#clipPath3); fill:none; stroke:rgb(128,128,128);" y2="22"></line><line x1="0" x2="1681" y1="75" style="clip-path:url(#clipPath3); fill:none; stroke:rgb(196,196,196);" y2="75"></line><line x1="0" x2="1681" y1="128" style="clip-path:url(#clipPath3); fill:none; stroke:rgb(196,196,196);" y2="128"></line><line x1="0" x2="1681" y1="181" style="clip-path:url(#clipPath3); fill:none; stroke:rgb(196,196,196);" y2="181"></line><line x1="0" x2="1681" y1="234" style="clip-path:url(#clipPath3); fill:none; stroke:rgb(196,196,196);" y2="234"></line><polygon style="fill:rgb(255,196,0); clip-path:url(#clipPath3); stroke:none;" points=" 4 1082 4 976 8 950 13 976 17 950 22 950 26 950 31 950 35 552 40 950 44 976 49 950 53 950 57 950 62 950 66 950 71 950 75 950 80 950 84 950 89 950 93 950 98 950 102 950 107 950 111 950 115 950 120 923 124 923 129 923 133 923 138 923 142 923 147 950 151 950 156 870 160 870 165 870 169 870 174 950 178 950 182 764 187 764 191 976 196 976 200 976 205 605 209 976 214 976 218 976 223 155 227 791 232 976 236 976 240 1003 245 1003 249 1003 254 1003 258 1003 263 1003 267 1003 272 1003 276 1003 281 1003 285 1003 290 976 294 976 298 976 303 976 307 976 312 976 316 976 321 976 325 976 330 976 334 976 339 976 343 976 348 976 352 976 356 976 361 976 365 976 370 976 374 976 379 976 383 976 388 976 392 976 397 976 401 976 406 976 410 976 414 976 419 976 423 976 428 976 432 976 437 976 441 976 446 976 450 976 455 976 459 1003 464 1003 468 1003 472 1003 477 1003 481 1003 486 1003 490 1003 495 1003 499 1003 504 1003 508 1003 513 1003 517 1003 522 1003 526 1003 530 1003 535 1003 539 1003 544 1003 548 1003 553 1003 557 1003 562 1003 566 1003 571 1003 575 1003 580 1003 584 1003 588 1003 593 1003 597 1003 602 1003 606 1003 611 1003 615 1003 620 1003 624 1003 629 1003 633 1003 638 1003 642 1003 646 1003 651 1003 655 1003 660 1003 664 1003 669 1003 673 1003 678 1003 682 1003 687 1003 691 1003 696 1003 700 1003 704 1003 709 1003 713 1003 718 1003 722 1003 727 1003 731 1003 736 1003 740 1003 745 1003 749 1003 754 1003 758 1003 762 1003 767 1003 771 1003 776 1003 780 1003 785 1003 789 1003 794 1003 798 1003 803 1003 807 1003 812 1003 816 1003 820 1003 825 1003 829 1003 834 976 838 976 843 976 847 976 852 976 856 976 861 976 865 976 870 976 874 976 878 976 883 976 887 976 892 976 896 976 901 976 905 976 910 976 914 976 919 976 923 976 928 976 932 976 936 976 941 976 945 976 950 976 954 976 959 976 963 976 968 976 972 976 977 976 981 976 986 976 990 976 994 976 999 976 1003 976 1008 976 1012 976 1017 976 1021 976 1026 976 1030 976 1035 976 1039 976 1044 976 1048 976 1052 976 1057 976 1061 976 1066 976 1070 976 1075 976 1079 976 1084 976 1088 1003 1093 1003 1097 1003 1102 1003 1106 1003 1110 1003 1115 1003 1119 1003 1124 1003 1128 1003 1133 923 1137 923 1142 923 1146 923 1151 923 1155 923 1160 923 1164 923 1168 923 1173 923 1177 923 1182 923 1186 923 1191 923 1195 923 1200 923 1204 923 1209 923 1213 923 1218 923 1222 923 1226 923 1231 923 1235 923 1240 923 1244 923 1249 923 1253 923 1258 923 1262 923 1267 1003 1271 1003 1276 1003 1280 1003 1284 1003 1289 1003 1293 1003 1298 1003 1302 1003 1307 1003 1311 817 1316 817 1320 817 1325 817 1329 817 1334 817 1338 817 1342 817 1347 817 1351 817 1356 817 1360 817 1365 817 1369 817 1374 817 1378 817 1383 1003 1387 1003 1391 1003 1396 1003 1400 1003 1405 1003 1409 1003 1414 1003 1418 1003 1423 1003 1427 605 1432 605 1436 605 1441 605 1445 605 1450 605 1454 605 1458 605 1463 605 1467 605 1472 605 1476 605 1481 817 1485 1003 1490 1003 1494 1003 1499 1003 1503 1003 1508 1003 1512 1003 1516 1003 1521 1003 1525 1003 1530 1003 1534 181 1539 181 1543 181 1548 181 1552 181 1557 181 1561 181 1565 181 1570 181 1574 446 1579 181 1583 181 1588 817 1592 817 1597 1003 1601 1003 1606 1003 1610 1003 1615 1003 1619 1003 1623 1003 1628 1003 1632 1003 1637 1003 1641 1029 1646 1029 1650 1029 1655 1029 1659 1029 1664 1029 1671 1082 1671 1082 1671 1082"></polygon><polygon style="fill:rgb(128,255,255); clip-path:url(#clipPath3); stroke:none;" points=" 4 1082 4 1055 8 1056 13 1055 17 1056 22 1056 26 1056 31 1056 35 658 40 1056 44 1055 49 1056 53 1056 57 1056 62 1056 66 1056 71 1056 75 1056 80 1056 84 1056 89 1056 93 1056 98 1056 102 1056 107 1056 111 1056 115 1056 120 1029 124 1029 129 1029 133 1029 138 1029 142 1029 147 1056 151 1056 156 976 160 976 165 976 169 976 174 1056 178 1056 182 870 187 870 191 1055 196 1055 200 1055 205 684 209 1055 214 1055 218 1055 223 234 227 870 232 1055 236 1055 240 1056 245 1056 249 1056 254 1056 258 1056 263 1056 267 1056 272 1056 276 1056 281 1056 285 1056 290 1055 294 1055 298 1055 303 1055 307 1055 312 1055 316 1055 321 1055 325 1055 330 1055 334 1055 339 1055 343 1055 348 1055 352 1055 356 1055 361 1055 365 1055 370 1055 374 1055 379 1055 383 1055 388 1055 392 1055 397 1055 401 1055 406 1055 410 1055 414 1055 419 1055 423 1055 428 1055 432 1055 437 1055 441 1055 446 1055 450 1055 455 1055 459 1056 464 1056 468 1056 472 1056 477 1056 481 1056 486 1056 490 1056 495 1056 499 1056 504 1056 508 1056 513 1056 517 1056 522 1056 526 1056 530 1056 535 1056 539 1056 544 1056 548 1056 553 1056 557 1056 562 1056 566 1056 571 1056 575 1056 580 1056 584 1056 588 1056 593 1056 597 1056 602 1056 606 1056 611 1056 615 1056 620 1056 624 1056 629 1056 633 1056 638 1056 642 1056 646 1056 651 1056 655 1056 660 1056 664 1056 669 1056 673 1056 678 1056 682 1056 687 1056 691 1056 696 1056 700 1056 704 1056 709 1056 713 1056 718 1056 722 1056 727 1056 731 1056 736 1056 740 1056 745 1056 749 1056 754 1056 758 1056 762 1056 767 1056 771 1056 776 1056 780 1056 785 1056 789 1056 794 1056 798 1056 803 1056 807 1056 812 1056 816 1056 820 1056 825 1056 829 1056 834 1029 838 1029 843 1029 847 1029 852 1029 856 1029 861 1029 865 1029 870 1029 874 1029 878 1029 883 1029 887 1029 892 1029 896 1029 901 1029 905 1029 910 1029 914 1029 919 1029 923 1029 928 1029 932 1029 936 1029 941 1029 945 1029 950 1029 954 1029 959 1029 963 1029 968 1029 972 1029 977 1029 981 1029 986 1029 990 1029 994 1029 999 1029 1003 1029 1008 1029 1012 1029 1017 1029 1021 1029 1026 1029 1030 1029 1035 1029 1039 1029 1044 1029 1048 1029 1052 1029 1057 1029 1061 1029 1066 1029 1070 1029 1075 1029 1079 1029 1084 1029 1088 1056 1093 1056 1097 1056 1102 1056 1106 1056 1110 1056 1115 1056 1119 1056 1124 1056 1128 1056 1133 976 1137 976 1142 976 1146 976 1151 976 1155 976 1160 976 1164 976 1168 976 1173 976 1177 976 1182 976 1186 976 1191 976 1195 976 1200 976 1204 976 1209 976 1213 976 1218 976 1222 976 1226 976 1231 976 1235 976 1240 976 1244 976 1249 976 1253 976 1258 976 1262 976 1267 1056 1271 1056 1276 1056 1280 1056 1284 1056 1289 1056 1293 1056 1298 1056 1302 1056 1307 1056 1311 870 1316 870 1320 870 1325 870 1329 870 1334 870 1338 870 1342 870 1347 870 1351 870 1356 870 1360 870 1365 870 1369 870 1374 870 1378 976 1383 1056 1387 1056 1391 1056 1396 1056 1400 1056 1405 1056 1409 1056 1414 1056 1418 1056 1423 1056 1427 658 1432 658 1436 658 1441 658 1445 658 1450 658 1454 658 1458 658 1463 658 1467 658 1472 658 1476 658 1481 870 1485 1056 1490 1056 1494 1056 1499 1056 1503 1056 1508 1056 1512 1056 1516 1056 1521 1056 1525 1056 1530 1056 1534 234 1539 234 1543 234 1548 234 1552 234 1557 234 1561 234 1565 234 1570 234 1574 499 1579 234 1583 234 1588 870 1592 1029 1597 1056 1601 1056 1606 1056 1610 1056 1615 1056 1619 1056 1623 1056 1628 1056 1632 1056 1637 1056 1641 1055 1646 1055 1650 1055 1655 1055 1659 1055 1664 1055 1671 1082 1671 1082 1671 1082"></polygon><polygon style="fill:rgb(255,0,0); clip-path:url(#clipPath3); stroke:none;" points=" 4 1082 4 1055 8 1056 13 1055 17 1056 22 1056 26 1056 31 1056 35 658 40 1056 44 1055 49 1056 53 1056 57 1056 62 1056 66 1056 71 1056 75 1056 80 1056 84 1056 89 1056 93 1056 98 1056 102 1056 107 1056 111 1056 115 1056 120 1029 124 1029 129 1029 133 1029 138 1029 142 1029 147 1056 151 1056 156 976 160 976 165 976 169 976 174 1056 178 1056 182 870 187 870 191 1055 196 1055 200 1055 205 684 209 1055 214 1055 218 1055 223 234 227 870 232 1055 236 1055 240 1056 245 1056 249 1056 254 1056 258 1056 263 1056 267 1056 272 1056 276 1056 281 1056 285 1056 290 1055 294 1055 298 1055 303 1055 307 1055 312 1055 316 1055 321 1055 325 1055 330 1055 334 1055 339 1055 343 1055 348 1055 352 1055 356 1055 361 1055 365 1055 370 1055 374 1055 379 1055 383 1055 388 1055 392 1055 397 1055 401 1055 406 1055 410 1055 414 1055 419 1055 423 1055 428 1055 432 1055 437 1055 441 1055 446 1055 450 1055 455 1055 459 1056 464 1056 468 1056 472 1056 477 1056 481 1056 486 1056 490 1056 495 1056 499 1056 504 1056 508 1056 513 1056 517 1056 522 1056 526 1056 530 1056 535 1056 539 1056 544 1056 548 1056 553 1056 557 1056 562 1056 566 1056 571 1056 575 1056 580 1056 584 1056 588 1056 593 1056 597 1056 602 1056 606 1056 611 1056 615 1056 620 1056 624 1056 629 1056 633 1056 638 1056 642 1056 646 1056 651 1056 655 1056 660 1056 664 1056 669 1056 673 1056 678 1056 682 1056 687 1056 691 1056 696 1056 700 1056 704 1056 709 1056 713 1056 718 1056 722 1056 727 1056 731 1056 736 1056 740 1056 745 1056 749 1056 754 1056 758 1056 762 1056 767 1056 771 1056 776 1056 780 1056 785 1056 789 1056 794 1056 798 1056 803 1056 807 1056 812 1056 816 1056 820 1056 825 1056 829 1056 834 1029 838 1029 843 1029 847 1029 852 1029 856 1029 861 1029 865 1029 870 1029 874 1029 878 1029 883 1029 887 1029 892 1029 896 1029 901 1029 905 1029 910 1029 914 1029 919 1029 923 1029 928 1029 932 1029 936 1029 941 1029 945 1029 950 1029 954 1029 959 1029 963 1029 968 1029 972 1029 977 1029 981 1029 986 1029 990 1029 994 1029 999 1029 1003 1029 1008 1029 1012 1029 1017 1029 1021 1029 1026 1029 1030 1029 1035 1029 1039 1029 1044 1029 1048 1029 1052 1029 1057 1029 1061 1029 1066 1029 1070 1029 1075 1029 1079 1029 1084 1029 1088 1056 1093 1056 1097 1056 1102 1056 1106 1056 1110 1056 1115 1056 1119 1056 1124 1056 1128 1056 1133 976 1137 976 1142 976 1146 976 1151 976 1155 976 1160 976 1164 976 1168 976 1173 976 1177 976 1182 976 1186 976 1191 976 1195 976 1200 976 1204 976 1209 976 1213 976 1218 976 1222 976 1226 976 1231 976 1235 976 1240 976 1244 976 1249 976 1253 976 1258 976 1262 976 1267 1056 1271 1056 1276 1056 1280 1056 1284 1056 1289 1056 1293 1056 1298 1056 1302 1056 1307 1056 1311 870 1316 870 1320 870 1325 870 1329 870 1334 870 1338 870 1342 870 1347 870 1351 870 1356 870 1360 870 1365 870 1369 870 1374 870 1378 976 1383 1056 1387 1056 1391 1056 1396 1056 1400 1056 1405 1056 1409 1056 1414 1056 1418 1056 1423 1056 1427 658 1432 658 1436 658 1441 658 1445 658 1450 658 1454 658 1458 658 1463 658 1467 658 1472 658 1476 658 1481 870 1485 1056 1490 1056 1494 1056 1499 1056 1503 1056 1508 1056 1512 1056 1516 1056 1521 1056 1525 1056 1530 1056 1534 234 1539 234 1543 234 1548 234 1552 234 1557 234 1561 234 1565 234 1570 234 1574 499 1579 234 1583 234 1588 870 1592 1029 1597 1056 1601 1056 1606 1056 1610 1056 1615 1056 1619 1056 1623 1056 1628 1056 1632 1056 1637 1056 1641 1055 1646 1055 1650 1055 1655 1055 1659 1055 1664 1055 1671 1082 1671 1082 1671 1082"></polygon><polygon style="fill:rgb(0,196,0); clip-path:url(#clipPath3); stroke:none;" points=" 4 1082 4 1055 8 1056 13 1055 17 1056 22 1056 26 1056 31 1056 35 658 40 1056 44 1055 49 1056 53 1056 57 1056 62 1056 66 1056 71 1056 75 1056 80 1056 84 1056 89 1056 93 1056 98 1056 102 1056 107 1056 111 1056 115 1056 120 1029 124 1029 129 1029 133 1029 138 1029 142 1029 147 1056 151 1056 156 976 160 976 165 976 169 976 174 1056 178 1056 182 870 187 870 191 1055 196 1055 200 1055 205 684 209 1055 214 1055 218 1055 223 234 227 870 232 1055 236 1055 240 1056 245 1056 249 1056 254 1056 258 1056 263 1056 267 1056 272 1056 276 1056 281 1056 285 1056 290 1055 294 1055 298 1055 303 1055 307 1055 312 1055 316 1055 321 1055 325 1055 330 1055 334 1055 339 1055 343 1055 348 1055 352 1055 356 1055 361 1055 365 1055 370 1055 374 1055 379 1055 383 1055 388 1055 392 1055 397 1055 401 1055 406 1055 410 1055 414 1055 419 1055 423 1055 428 1055 432 1055 437 1055 441 1055 446 1055 450 1055 455 1055 459 1056 464 1056 468 1056 472 1056 477 1056 481 1056 486 1056 490 1056 495 1056 499 1056 504 1056 508 1056 513 1056 517 1056 522 1056 526 1056 530 1056 535 1056 539 1056 544 1056 548 1056 553 1056 557 1056 562 1056 566 1056 571 1056 575 1056 580 1056 584 1056 588 1056 593 1056 597 1056 602 1056 606 1056 611 1056 615 1056 620 1056 624 1056 629 1056 633 1056 638 1056 642 1056 646 1056 651 1056 655 1056 660 1056 664 1056 669 1056 673 1056 678 1056 682 1056 687 1056 691 1056 696 1056 700 1056 704 1056 709 1056 713 1056 718 1056 722 1056 727 1056 731 1056 736 1056 740 1056 745 1056 749 1056 754 1056 758 1056 762 1056 767 1056 771 1056 776 1056 780 1056 785 1056 789 1056 794 1056 798 1056 803 1056 807 1056 812 1056 816 1056 820 1056 825 1056 829 1056 834 1029 838 1029 843 1029 847 1029 852 1029 856 1029 861 1029 865 1029 870 1029 874 1029 878 1029 883 1029 887 1029 892 1029 896 1029 901 1029 905 1029 910 1029 914 1029 919 1029 923 1029 928 1029 932 1029 936 1029 941 1029 945 1029 950 1029 954 1029 959 1029 963 1029 968 1029 972 1029 977 1029 981 1029 986 1029 990 1029 994 1029 999 1029 1003 1029 1008 1029 1012 1029 1017 1029 1021 1029 1026 1029 1030 1029 1035 1029 1039 1029 1044 1029 1048 1029 1052 1029 1057 1029 1061 1029 1066 1029 1070 1029 1075 1029 1079 1029 1084 1029 1088 1056 1093 1056 1097 1056 1102 1056 1106 1056 1110 1056 1115 1056 1119 1056 1124 1056 1128 1056 1133 976 1137 976 1142 976 1146 976 1151 976 1155 976 1160 976 1164 976 1168 976 1173 976 1177 976 1182 976 1186 976 1191 976 1195 976 1200 976 1204 976 1209 976 1213 976 1218 976 1222 976 1226 976 1231 976 1235 976 1240 976 1244 976 1249 976 1253 976 1258 976 1262 976 1267 1056 1271 1056 1276 1056 1280 1056 1284 1056 1289 1056 1293 1056 1298 1056 1302 1056 1307 1056 1311 870 1316 870 1320 870 1325 870 1329 870 1334 870 1338 870 1342 870 1347 870 1351 870 1356 870 1360 870 1365 870 1369 870 1374 870 1378 976 1383 1056 1387 1056 1391 1056 1396 1056 1400 1056 1405 1056 1409 1056 1414 1056 1418 1056 1423 1056 1427 658 1432 658 1436 658 1441 658 1445 658 1450 658 1454 658 1458 658 1463 658 1467 658 1472 658 1476 658 1481 870 1485 1056 1490 1056 1494 1056 1499 1056 1503 1056 1508 1056 1512 1056 1516 1056 1521 1056 1525 1056 1530 1056 1534 234 1539 234 1543 234 1548 234 1552 234 1557 234 1561 234 1565 234 1570 234 1574 499 1579 234 1583 234 1588 870 1592 1029 1597 1056 1601 1056 1606 1056 1610 1056 1615 1056 1619 1056 1623 1056 1628 1056 1632 1056 1637 1056 1641 1055 1646 1055 1650 1055 1655 1055 1659 1055 1664 1055 1671 1082 1671 1082 1671 1082"></polygon></g><g transform="translate(76,32)" style="font-size:18.6667px; fill:purple; text-rendering:geometricPrecision; font-family:'Ubuntu'; shape-rendering:crispEdges; stroke:purple; stroke-width:2;"><line x1="207" x2="207" y1="0" style="fill:none; clip-path:url(#clipPath3);" y2="1082"></line><line x1="1664" x2="1664" y1="0" style="clip-path:url(#clipPath3); fill:none; stroke:rgb(51,102,255);" y2="1082"></line></g></g></svg>
